{
  "accessors": [
    {
      "bufferView": 2,
      "componentType": 5126,
      "count": 8458,
      "max": [
        597.1554565429688,
        597.155517578125,
        597.155517578125
      ],
      "min": [
        -597.1552734375,
        -597.1553344726563,
        -597.155517578125
      ],
      "type": "VEC3"
    },
    {
      "bufferView": 2,
      "byteOffset": 101496,
      "componentType": 5126,
      "count": 8458,
      "max": [
        1.0,
        1.0,
        1.0
      ],
      "min": [
        -1.0,
        -1.0,
        -1.0
      ],
      "type": "VEC3"
    },
    {
      "bufferView": 1,
      "componentType": 5126,
      "count": 8458,
      "max": [
        1.0,
        1.0
      ],
      "min": [
        0.0,
        0.0
      ],
      "type": "VEC2"
    },
    {
      "bufferView": 0,
      "componentType": 5125,
      "count": 47973,
      "type": "SCALAR"
    },
    {
      "bufferView": 2,
      "byteOffset": 202992,
      "componentType": 5126,
      "count": 1024,
      "max": [
        106.43611145019531,
        106.43608093261719,
        7.3877636168617755e-06
      ],
      "min": [
        -106.43611145019531,
        -106.43608093261719,
        -6.597256287932396e-06
      ],
      "type": "VEC3"
    },
    {
      "bufferView": 2,
      "byteOffset": 215280,
      "componentType": 5126,
      "count": 1024,
      "max": [
        -9.571619052906044e-09,
        4.310168435495143e-07,
        1.0
      ],
      "min": [
        -1.1312423566778307e-06,
        -7.085178026500216e-07,
        1.0
      ],
      "type": "VEC3"
    },
    {
      "bufferView": 1,
      "byteOffset": 67664,
      "componentType": 5126,
      "count": 1024,
      "max": [
        0.9990018606185913,
        0.9990020394325256
      ],
      "min": [
        0.0009979866445064545,
        0.0009979866445064545
      ],
      "type": "VEC2"
    },
    {
      "bufferView": 0,
      "byteOffset": 191892,
      "componentType": 5125,
      "count": 1536,
      "type": "SCALAR"
    }
  ],
  "asset": {
    "extras": {
      "author": "Shady Tex (https://sketchfab.com/ShadyTex4u)",
      "license": "CC-BY-4.0 (http://creativecommons.org/licenses/by/4.0/)",
      "source": "https://sketchfab.com/3d-models/realistic-uranus-4k-8efca1ce8038429fa0fc0a94a7468eae",
      "title": "Realistic Uranus 4k"
    },
    "generator": "Sketchfab-15.36.0",
    "version": "2.0"
  },
  "bufferViews": [
    {
      "buffer": 0,
      "byteLength": 198036,
      "name": "floatBufferViews",
      "target": 34963
    },
    {
      "buffer": 0,
      "byteLength": 75856,
      "byteOffset": 198036,
      "byteStride": 8,
      "name": "floatBufferViews",
      "target": 34962
    },
    {
      "buffer": 0,
      "byteLength": 227568,
      "byteOffset": 273892,
      "byteStride": 12,
      "name": "floatBufferViews",
      "target": 34962
    }
  ],
  "buffers": [
    {
      "byteLength": 501460,
      "uri": "scene.bin"
    }
  ],
  "images": [
    {
      "uri": "textures/Material_baseColor.jpeg"
    },
    {
      "uri": "textures/Material.003_baseColor.png"
    }
  ],
  "materials": [
    {
      "doubleSided": true,
      "name": "Material",
      "pbrMetallicRoughness": {
        "baseColorTexture": {
          "index": 0
        },
        "metallicFactor": 0.0,
        "roughnessFactor": 0.937100399838053
      }
    },
    {
      "alphaCutoff": 0.29731285837674876,
      "alphaMode": "MASK",
      "doubleSided": true,
      "name": "Material.003",
      "pbrMetallicRoughness": {
        "baseColorTexture": {
          "index": 1
        },
        "metallicFactor": 0.0,
        "roughnessFactor": 0.8040408205773457
      }
    }
  ],
  "meshes": [
    {
      "name": "Sphere_Material_0",
      "primitives": [
        {
          "attributes": {
            "NORMAL": 1,
            "POSITION": 0,
            "TEXCOORD_0": 2
          },
          "indices": 3,
          "material": 0,
          "mode": 4
        }
      ]
    },
    {
      "name": "Circle_Material.003_0",
      "primitives": [
        {
          "attributes": {
            "NORMAL": 5,
            "POSITION": 4,
            "TEXCOORD_0": 6
          },
          "indices": 7,
          "material": 1,
          "mode": 4
        }
      ]
    }
  ],
  "nodes": [
    {
      "children": [
        1
      ],
      "matrix": [
        1.0,
        0.0,
        0.0,
        0.0,
        0.0,
        2.220446049250313e-16,
        -1.0,
        0.0,
        0.0,
        1.0,
        2.220446049250313e-16,
        0.0,
        0.0,
        0.0,
        0.0,
        1.0
      ],
      "name": "Sketchfab_model"
    },
    {
      "children": [
        2
      ],
      "matrix": [
        0.009999999776482582,
        0.0,
        0.0,
        0.0,
        0.0,
        0.0,
        0.009999999776482582,
        0.0,
        0.0,
        -0.009999999776482582,
        0.0,
        0.0,
        0.0,
        0.0,
        0.0,
        1.0
      ],
      "name": "9abee8f95ef94bec8bf14ca3ca198788.fbx"
    },
    {
      "children": [
        3,
        5
      ],
      "name": "RootNode"
    },
    {
      "children": [
        4
      ],
      "matrix": [
        94.20656283948723,
        -6.680501852039773,
        -32.87087484346342,
        0.0,
        -22.374770465070764,
        60.49323627194243,
        -76.41948712195304,
        0.0,
        24.989861236212175,
        79.34695495324218,
        55.49385168685822,
        0.0,
        0.0,
        0.0,
        0.0,
        1.0
      ],
      "name": "Sphere"
    },
    {
      "mesh": 0,
      "name": "Sphere_Material_0"
    },
    {
      "children": [
        6
      ],
      "matrix": [
        823.0954776816224,
        -354.9621771408414,
        73.09427126183063,
        0.0,
        148.52845840143377,
        164.94563564418254,
        -871.5271303671879,
        0.0,
        330.57563792737164,
        809.704921879968,
        209.58289942526662,
        0.0,
        0.0,
        0.0,
        0.0,
        1.0
      ],
      "name": "Circle"
    },
    {
      "mesh": 1,
      "name": "Circle_Material.003_0"
    }
  ],
  "samplers": [
    {
      "magFilter": 9729,
      "minFilter": 9987,
      "wrapS": 10497,
      "wrapT": 10497
    }
  ],
  "scene": 0,
  "scenes": [
    {
      "name": "Sketchfab_Scene",
      "nodes": [
        0
      ]
    }
  ],
  "textures": [
    {
      "sampler": 0,
      "source": 0
    },
    {
      "sampler": 0,
      "source": 1
    }
  ]
}
